# xmcd
#
# Track frame offsets:
#	150
#	10175
#	25375
#	36175
#	49275
#	65775
#	79825
#	90700
#	102975
#	115575
#	127675
#	138100
#	150325
#	167575
#	184025
#	193225
#
# Disc length: 2725 seconds
#
# Revision: 0
# Processed by: cddbd v1.5.1PL0 Copyright (c) Steve Scherf et al.
# Submitted via: audiograbber 1.83.01
#
DISCID=ca0aa310
DTITLE=Ralf Paulsen - Es hängt ein pferdehalfter an der wand
DYEAR=1900
DGENRE=Tyskt/Country
TTITLE0=Bonanza
TTITLE1=Es hängt ein pferdehalfter an der wand
TTITLE2=Geisterreiter
TTITLE3=Das alte haus von Rocky Docky
TTITLE4=High noon (12 uhr mittags)
TTITLE5=Tom Dooley
TTITLE6=Oh my darling, Caroline
TTITLE7=Kein gold im Blue River
TTITLE8=Kleine Annabell
TTITLE9=Anja, Anja
TTITLE10=Eine kleine träne
TTITLE11=Lass die sonne wieder scheinen
TTITLE12=Little Joe, good bye
TTITLE13=Sommerwein
TTITLE14=Tränen in deinen augen
TTITLE15=Jeder tag geht zu ende
EXTD=
EXTT0=
EXTT1=
EXTT2=
EXTT3=
EXTT4=
EXTT5=
EXTT6=
EXTT7=
EXTT8=
EXTT9=
EXTT10=
EXTT11=
EXTT12=
EXTT13=
EXTT14=
EXTT15=
PLAYORDER=
